<?xml version="1.0" standalone="no"?>
<!DOCTYPE svg PUBLIC "-//W3C//DTD SVG 1.1//EN" 
"http://www.w3.org/Graphics/SVG/1.1/DTD/svg11.dtd">
<svg width="1440" height="2450" version="1.1"
xmlns="http://www.w3.org/2000/svg">
<line x1="0" y1="0" x2="1440" y2="0" style="stroke:rgb(220,220,220);stroke-width:1"/>
<line x1="0" y1="60" x2="1440" y2="60" style="stroke:rgb(220,220,220);stroke-width:1"/>
<line x1="0" y1="116" x2="1440" y2="116" style="stroke:rgb(220,220,220);stroke-width:1"/>
<line x1="0" y1="122" x2="1440" y2="122" style="stroke:rgb(220,220,220);stroke-width:1"/>
<line x1="0" y1="210" x2="1440" y2="210" style="stroke:rgb(220,220,220);stroke-width:1"/>
<line x1="0" y1="314" x2="1440" y2="314" style="stroke:rgb(220,220,220);stroke-width:1"/>
<line x1="0" y1="406" x2="1440" y2="406" style="stroke:rgb(220,220,220);stroke-width:1"/>
<line x1="0" y1="420" x2="1440" y2="420" style="stroke:rgb(220,220,220);stroke-width:1"/>
<line x1="0" y1="465" x2="1440" y2="465" style="stroke:rgb(220,220,220);stroke-width:1"/>
<line x1="0" y1="535" x2="1440" y2="535" style="stroke:rgb(220,220,220);stroke-width:1"/>
<line x1="0" y1="591" x2="1440" y2="591" style="stroke:rgb(220,220,220);stroke-width:1"/>
<line x1="0" y1="627" x2="1440" y2="627" style="stroke:rgb(220,220,220);stroke-width:1"/>
<line x1="0" y1="692" x2="1440" y2="692" style="stroke:rgb(220,220,220);stroke-width:1"/>
<line x1="0" y1="760" x2="1440" y2="760" style="stroke:rgb(220,220,220);stroke-width:1"/>
<line x1="0" y1="848" x2="1440" y2="848" style="stroke:rgb(220,220,220);stroke-width:1"/>
<line x1="0" y1="902" x2="1440" y2="902" style="stroke:rgb(220,220,220);stroke-width:1"/>
<line x1="0" y1="964" x2="1440" y2="964" style="stroke:rgb(220,220,220);stroke-width:1"/>
<line x1="0" y1="1023" x2="1440" y2="1023" style="stroke:rgb(220,220,220);stroke-width:1"/>
<line x1="0" y1="1088" x2="1440" y2="1088" style="stroke:rgb(220,220,220);stroke-width:1"/>
<line x1="0" y1="1120" x2="1440" y2="1120" style="stroke:rgb(220,220,220);stroke-width:1"/>
<line x1="0" y1="1210" x2="1440" y2="1210" style="stroke:rgb(220,220,220);stroke-width:1"/>
<line x1="0" y1="1237" x2="1440" y2="1237" style="stroke:rgb(220,220,220);stroke-width:1"/>
<line x1="0" y1="1268" x2="1440" y2="1268" style="stroke:rgb(220,220,220);stroke-width:1"/>
<line x1="0" y1="1303" x2="1440" y2="1303" style="stroke:rgb(220,220,220);stroke-width:1"/>
<line x1="0" y1="1318" x2="1440" y2="1318" style="stroke:rgb(220,220,220);stroke-width:1"/>
<line x1="0" y1="1402" x2="1440" y2="1402" style="stroke:rgb(220,220,220);stroke-width:1"/>
<line x1="0" y1="1477" x2="1440" y2="1477" style="stroke:rgb(220,220,220);stroke-width:1"/>
<line x1="0" y1="0" x2="0" y2="3000" style="stroke:rgb(128,128,128);stroke-width:1"/>
<line x1="30" y1="0" x2="30" y2="3000" style="stroke:rgb(220,220,220);stroke-width:1"/>
<line x1="60" y1="0" x2="60" y2="3000" style="stroke:rgb(128,128,128);stroke-width:1"/>
<line x1="90" y1="0" x2="90" y2="3000" style="stroke:rgb(220,220,220);stroke-width:1"/>
<line x1="120" y1="0" x2="120" y2="3000" style="stroke:rgb(128,128,128);stroke-width:1"/>
<line x1="150" y1="0" x2="150" y2="3000" style="stroke:rgb(220,220,220);stroke-width:1"/>
<line x1="180" y1="0" x2="180" y2="3000" style="stroke:rgb(128,128,128);stroke-width:1"/>
<line x1="210" y1="0" x2="210" y2="3000" style="stroke:rgb(220,220,220);stroke-width:1"/>
<line x1="240" y1="0" x2="240" y2="3000" style="stroke:rgb(128,128,128);stroke-width:1"/>
<line x1="270" y1="0" x2="270" y2="3000" style="stroke:rgb(220,220,220);stroke-width:1"/>
<line x1="300" y1="0" x2="300" y2="3000" style="stroke:rgb(128,128,128);stroke-width:1"/>
<line x1="330" y1="0" x2="330" y2="3000" style="stroke:rgb(220,220,220);stroke-width:1"/>
<line x1="360" y1="0" x2="360" y2="3000" style="stroke:rgb(128,128,128);stroke-width:1"/>
<line x1="390" y1="0" x2="390" y2="3000" style="stroke:rgb(220,220,220);stroke-width:1"/>
<line x1="420" y1="0" x2="420" y2="3000" style="stroke:rgb(128,128,128);stroke-width:1"/>
<line x1="450" y1="0" x2="450" y2="3000" style="stroke:rgb(220,220,220);stroke-width:1"/>
<line x1="480" y1="0" x2="480" y2="3000" style="stroke:rgb(128,128,128);stroke-width:1"/>
<line x1="510" y1="0" x2="510" y2="3000" style="stroke:rgb(220,220,220);stroke-width:1"/>
<line x1="540" y1="0" x2="540" y2="3000" style="stroke:rgb(128,128,128);stroke-width:1"/>
<line x1="570" y1="0" x2="570" y2="3000" style="stroke:rgb(220,220,220);stroke-width:1"/>
<line x1="600" y1="0" x2="600" y2="3000" style="stroke:rgb(128,128,128);stroke-width:1"/>
<line x1="630" y1="0" x2="630" y2="3000" style="stroke:rgb(220,220,220);stroke-width:1"/>
<line x1="660" y1="0" x2="660" y2="3000" style="stroke:rgb(128,128,128);stroke-width:1"/>
<line x1="690" y1="0" x2="690" y2="3000" style="stroke:rgb(220,220,220);stroke-width:1"/>
<line x1="720" y1="0" x2="720" y2="3000" style="stroke:rgb(128,128,128);stroke-width:1"/>
<line x1="750" y1="0" x2="750" y2="3000" style="stroke:rgb(220,220,220);stroke-width:1"/>
<line x1="780" y1="0" x2="780" y2="3000" style="stroke:rgb(128,128,128);stroke-width:1"/>
<line x1="810" y1="0" x2="810" y2="3000" style="stroke:rgb(220,220,220);stroke-width:1"/>
<line x1="840" y1="0" x2="840" y2="3000" style="stroke:rgb(128,128,128);stroke-width:1"/>
<line x1="870" y1="0" x2="870" y2="3000" style="stroke:rgb(220,220,220);stroke-width:1"/>
<line x1="900" y1="0" x2="900" y2="3000" style="stroke:rgb(128,128,128);stroke-width:1"/>
<line x1="930" y1="0" x2="930" y2="3000" style="stroke:rgb(220,220,220);stroke-width:1"/>
<line x1="960" y1="0" x2="960" y2="3000" style="stroke:rgb(128,128,128);stroke-width:1"/>
<line x1="990" y1="0" x2="990" y2="3000" style="stroke:rgb(220,220,220);stroke-width:1"/>
<line x1="1020" y1="0" x2="1020" y2="3000" style="stroke:rgb(128,128,128);stroke-width:1"/>
<line x1="1050" y1="0" x2="1050" y2="3000" style="stroke:rgb(220,220,220);stroke-width:1"/>
<line x1="1080" y1="0" x2="1080" y2="3000" style="stroke:rgb(128,128,128);stroke-width:1"/>
<line x1="1110" y1="0" x2="1110" y2="3000" style="stroke:rgb(220,220,220);stroke-width:1"/>
<line x1="1140" y1="0" x2="1140" y2="3000" style="stroke:rgb(128,128,128);stroke-width:1"/>
<line x1="1170" y1="0" x2="1170" y2="3000" style="stroke:rgb(220,220,220);stroke-width:1"/>
<line x1="1200" y1="0" x2="1200" y2="3000" style="stroke:rgb(128,128,128);stroke-width:1"/>
<line x1="1230" y1="0" x2="1230" y2="3000" style="stroke:rgb(220,220,220);stroke-width:1"/>
<line x1="1260" y1="0" x2="1260" y2="3000" style="stroke:rgb(128,128,128);stroke-width:1"/>
<line x1="1290" y1="0" x2="1290" y2="3000" style="stroke:rgb(220,220,220);stroke-width:1"/>
<line x1="1320" y1="0" x2="1320" y2="3000" style="stroke:rgb(128,128,128);stroke-width:1"/>
<line x1="1350" y1="0" x2="1350" y2="3000" style="stroke:rgb(220,220,220);stroke-width:1"/>
<line x1="1380" y1="0" x2="1380" y2="3000" style="stroke:rgb(128,128,128);stroke-width:1"/>
<line x1="1410" y1="0" x2="1410" y2="3000" style="stroke:rgb(220,220,220);stroke-width:1"/>
<polyline name="G175" class="G" style="fill:none;stroke:blue;stroke-width:1;opacity:0.8" points="381,0 433,210 436,210 463,314 469,314 493,406 496,406 "/>
<polyline name="G101" class="G" style="fill:none;stroke:blue;stroke-width:1;opacity:0.8" points="403,0 455,210 458,210 485,314 493,314 517,406 521,406 553,535 555,535 578,627 580,627 598,692 600,692 675,1023 677,1023 696,1088 698,1088 733,1237 736,1237 759,1318 759,1318 "/>
<polyline name="G103" class="G" style="fill:none;stroke:blue;stroke-width:1;opacity:0.8" points="413,0 464,210 475,210 521,406 525,406 542,465 544,465 575,591 577,591 602,692 604,692 641,848 643,848 672,964 674,964 692,1023 694,1023 738,1210 740,1210 769,1318 769,1318 "/>
<polyline name="G5" class="G" style="fill:none;stroke:blue;stroke-width:4;opacity:0.8" points="420,0 451,122 453,122 510,406 512,406 631,1023 633,1023 694,1318 694,1318 "/>
<polyline name="G471" class="G" style="fill:none;stroke:blue;stroke-width:1;opacity:0.8" points="430,0 464,122 466,122 510,314 512,314 536,406 538,406 "/>
<polyline name="G261" class="G" style="fill:none;stroke:blue;stroke-width:1;opacity:0.8" points="435,0 469,122 471,122 515,314 517,314 541,406 548,406 645,848 648,848 "/>
<polyline name="G57" class="G" style="fill:none;stroke:blue;stroke-width:1;opacity:0.8" points="440,0 474,122 477,122 524,314 526,314 550,406 552,406 602,627 604,627 622,692 624,692 700,1023 704,1023 782,1477 787,1477 "/>
<polyline name="G177" class="G" style="fill:none;stroke:blue;stroke-width:1;opacity:0.8" points="445,0 479,122 483,122 530,314 532,314 556,406 560,406 "/>
<polyline name="G105" class="G" style="fill:none;stroke:blue;stroke-width:1;opacity:0.8" points="455,0 476,60 478,60 513,210 515,210 561,406 563,406 626,692 628,692 647,760 652,760 713,1023 716,1023 791,1318 791,1318 "/>
<polyline name="G265" class="G" style="fill:none;stroke:blue;stroke-width:1;opacity:0.8" points="468,0 502,122 504,122 567,406 578,406 641,692 649,692 687,848 689,848 "/>
<polyline name="G11" class="G" style="fill:none;stroke:blue;stroke-width:1;opacity:0.8" points="480,0 572,406 574,406 709,1023 711,1023 761,1237 763,1237 786,1318 786,1318 "/>
<polyline name="G107" class="G" style="fill:none;stroke:blue;stroke-width:1;opacity:0.8" points="485,0 558,314 561,314 585,406 587,406 637,627 639,627 657,692 659,692 707,902 717,902 748,1023 752,1023 803,1237 805,1237 829,1318 829,1318 "/>
<polyline name="G55" class="G" style="fill:none;stroke:blue;stroke-width:1;opacity:0.8" points="490,0 563,314 566,314 590,406 594,406 637,591 646,591 671,692 681,692 756,1023 758,1023 834,1477 846,1477 "/>
<polyline name="G109" class="G" style="fill:none;stroke:blue;stroke-width:1;opacity:0.8" points="495,0 569,314 571,314 595,406 598,406 630,535 639,535 662,627 669,627 687,692 689,692 763,1023 765,1023 784,1088 786,1088 828,1237 831,1237 857,1318 857,1318 "/>
<polyline name="G165" class="G" style="fill:none;stroke:blue;stroke-width:1;opacity:0.8" points="500,0 574,314 582,314 606,406 609,406 641,535 655,535 691,692 697,692 734,848 739,848 781,1023 784,1023 877,1477 877,1477 "/>
<polyline name="G19" class="G" style="fill:none;stroke:blue;stroke-width:1;opacity:0.8" points="510,0 602,406 604,406 739,1023 741,1023 810,1477 821,1477 "/>
<polyline name="G111" class="G" style="fill:none;stroke:blue;stroke-width:1;opacity:0.8" points="515,0 588,314 590,314 614,406 618,406 635,465 646,465 753,964 755,964 774,1023 777,1023 802,1120 804,1120 827,1210 829,1210 862,1318 862,1318 "/>
<polyline name="G355" class="G" style="fill:none;stroke:blue;stroke-width:1;opacity:0.8" points="520,0 571,210 586,210 613,314 615,314 639,406 642,406 674,535 679,535 715,692 720,692 758,848 760,848 "/>
<polyline name="G263" class="G" style="fill:none;stroke:blue;stroke-width:1;opacity:0.8" points="526,0 599,314 606,314 630,406 638,406 701,692 703,692 "/>
<polyline name="G113" class="G" style="fill:none;stroke:blue;stroke-width:1;opacity:0.8" points="533,0 554,60 559,60 617,314 619,314 643,406 647,406 711,692 713,692 787,1023 791,1023 843,1237 850,1237 873,1318 873,1318 "/>
<polyline name="G1" class="G" style="fill:none;stroke:blue;stroke-width:4;opacity:0.8" points="540,0 622,406 624,406 743,1023 745,1023 808,1318 808,1318 "/>
<polyline name="G41" class="G" style="fill:none;stroke:blue;stroke-width:1;opacity:0.8" points="555,0 607,210 609,210 655,406 657,406 674,465 677,465 762,848 767,848 809,1023 811,1023 831,1088 836,1088 889,1318 891,1318 918,1402 920,1402 944,1477 944,1477 "/>
<polyline name="G115" class="G" style="fill:none;stroke:blue;stroke-width:1;opacity:0.8" points="560,0 595,122 597,122 641,314 643,314 667,406 669,406 746,760 758,760 818,1023 822,1023 841,1088 843,1088 891,1268 893,1268 910,1318 910,1318 "/>
<polyline name="G117" class="G" style="fill:none;stroke:blue;stroke-width:1;opacity:0.8" points="565,0 599,122 610,122 654,314 669,314 693,406 698,406 748,627 750,627 824,964 826,964 844,1023 848,1023 873,1120 875,1120 904,1237 906,1237 917,1268 919,1268 937,1318 937,1318 "/>
<polyline name="G179" class="G" style="fill:none;stroke:blue;stroke-width:1;opacity:0.8" points="575,0 648,314 650,314 674,406 676,406 "/>
<polyline name="G33" class="G" style="fill:none;stroke:blue;stroke-width:1;opacity:0.8" points="580,0 614,122 630,122 674,314 676,314 700,406 702,406 745,591 747,591 773,692 775,692 794,760 796,760 856,1023 858,1023 936,1477 942,1477 "/>
<polyline name="G27" class="G" style="fill:none;stroke:blue;stroke-width:1;opacity:0.8" points="585,0 659,314 665,314 689,406 694,406 "/>
<polyline name="G13" class="G" style="fill:none;stroke:blue;stroke-width:4;opacity:0.8" points="600,0 682,406 684,406 803,1023 805,1023 868,1318 868,1318 "/>
<polyline name="G119" class="G" style="fill:none;stroke:blue;stroke-width:1;opacity:0.8" points="605,0 657,210 659,210 704,406 706,406 738,535 740,535 764,627 766,627 784,692 786,692 860,1023 862,1023 881,1088 883,1088 912,1210 914,1210 943,1318 943,1318 "/>
<polyline name="G323" class="G" style="fill:none;stroke:blue;stroke-width:1;opacity:0.8" points="610,0 631,60 633,60 668,210 670,210 716,406 718,406 735,465 737,465 768,591 770,591 795,692 797,692 834,848 836,848 "/>
<polyline name="G121" class="G" style="fill:none;stroke:blue;stroke-width:1;opacity:0.8" points="628,0 649,60 651,60 669,122 671,122 715,314 717,314 741,406 744,406 794,627 803,627 821,692 823,692 897,1023 899,1023 944,1210 946,1210 956,1237 958,1237 969,1268 975,1268 992,1318 992,1318 "/>
<polyline name="G301" class="G" style="fill:none;stroke:blue;stroke-width:1;opacity:0.8" points="639,0 673,122 676,122 720,314 722,314 746,406 748,406 780,535 785,535 808,627 811,627 829,692 831,692 868,848 870,848 "/>
<polyline name="G181" class="G" style="fill:none;stroke:blue;stroke-width:1;opacity:0.8" points="644,0 678,122 681,122 725,314 733,314 757,406 760,406 "/>
<polyline name="G163" class="G" style="fill:none;stroke:blue;stroke-width:1;opacity:0.8" points="649,0 683,122 693,122 737,314 739,314 763,406 765,406 782,465 794,465 814,535 816,535 832,591 834,591 859,692 861,692 924,964 926,964 944,1023 950,1023 1033,1477 1035,1477 "/>
<polyline name="G15" class="G" style="fill:none;stroke:blue;stroke-width:2;opacity:0.8" points="660,0 752,406 754,406 886,1023 888,1023 956,1318 956,1318 "/>
<polyline name="G123" class="G" style="fill:none;stroke:blue;stroke-width:1;opacity:0.8" points="665,0 699,122 701,122 745,314 747,314 771,406 773,406 823,627 825,627 899,964 901,964 919,1023 921,1023 977,1237 979,1237 990,1268 992,1268 1010,1318 1010,1318 "/>
<polyline name="G125" class="G" style="fill:none;stroke:blue;stroke-width:1;opacity:0.8" points="670,0 704,122 706,122 750,314 752,314 776,406 778,406 821,591 824,591 882,848 884,848 926,1023 928,1023 947,1088 949,1088 997,1268 999,1268 1016,1318 1016,1318 "/>
<polyline name="G411" class="G" style="fill:none;stroke:blue;stroke-width:1;opacity:0.8" points="680,0 701,60 703,60 738,210 740,210 767,314 769,314 793,406 795,406 827,535 829,535 865,692 867,692 915,902 917,902 948,1023 950,1023 1002,1237 1004,1237 1028,1318 1028,1318 "/>
<polyline name="G127" class="G" style="fill:none;stroke:blue;stroke-width:1;opacity:0.8" points="695,0 747,210 749,210 776,314 778,314 802,406 804,406 821,465 824,465 875,692 877,692 896,760 898,760 958,1023 961,1023 1005,1210 1008,1210 1036,1318 1036,1318 "/>
<polyline name="G473" class="G" style="fill:none;stroke:blue;stroke-width:1;opacity:0.8" points="700,0 721,60 723,60 758,210 773,210 800,314 802,314 826,406 833,406 "/>
<polyline name="G183" class="G" style="fill:none;stroke:blue;stroke-width:1;opacity:0.8" points="715,0 788,314 790,314 814,406 822,406 "/>
<polyline name="G325" class="G" style="fill:none;stroke:blue;stroke-width:1;opacity:0.8" points="725,0 759,122 761,122 805,314 807,314 831,406 834,406 897,692 899,692 918,760 920,760 943,848 948,848 "/>
<polyline name="G129" class="G" style="fill:none;stroke:blue;stroke-width:1;opacity:0.8" points="730,0 764,122 766,122 810,314 812,314 836,406 838,406 901,692 903,692 923,760 926,760 986,1023 988,1023 1007,1088 1009,1088 1057,1268 1059,1268 1076,1318 1076,1318 "/>
<polyline name="G131" class="G" style="fill:none;stroke:blue;stroke-width:1;opacity:0.8" points="740,0 792,210 794,210 840,406 842,406 885,591 887,591 899,627 901,627 919,692 925,692 987,964 989,964 1007,1023 1011,1023 1061,1237 1063,1237 1086,1318 1086,1318 "/>
<polyline name="G185" class="G" style="fill:none;stroke:blue;stroke-width:1;opacity:0.8" points="745,0 797,210 799,210 845,406 854,406 "/>
<polyline name="G303" class="G" style="fill:none;stroke:blue;stroke-width:1;opacity:0.8" points="750,0 771,60 773,60 791,122 793,122 856,406 858,406 875,465 877,465 897,535 899,535 935,692 940,692 977,848 982,848 "/>
<polyline name="G133" class="G" style="fill:none;stroke:blue;stroke-width:1;opacity:0.8" points="760,0 795,122 798,122 842,314 844,314 868,406 870,406 902,535 904,535 973,848 975,848 1018,1023 1020,1023 1045,1120 1047,1120 1071,1210 1073,1210 1083,1237 1089,1237 1113,1318 1113,1318 "/>
<polyline name="G187" class="G" style="fill:none;stroke:blue;stroke-width:1;opacity:0.8" points="765,0 801,122 803,122 847,314 849,314 873,406 878,406 "/>
<polyline name="G167" class="G" style="fill:none;stroke:blue;stroke-width:1;opacity:0.8" points="770,0 806,122 808,122 852,314 854,314 878,406 881,406 944,692 950,692 1028,1023 1031,1023 1114,1477 1121,1477 "/>
<polyline name="G135" class="G" style="fill:none;stroke:blue;stroke-width:1;opacity:0.8" points="775,0 796,60 799,60 834,210 836,210 882,406 892,406 924,535 926,535 962,692 964,692 1002,848 1008,848 1050,1023 1052,1023 1077,1120 1079,1120 1103,1210 1105,1210 1134,1318 1134,1318 "/>
<polyline name="G137" class="G" style="fill:none;stroke:blue;stroke-width:1;opacity:0.8" points="787,0 838,210 845,210 891,406 896,406 913,465 915,465 946,591 948,591 973,692 980,692 1054,1023 1056,1023 1075,1088 1077,1088 1119,1237 1121,1237 1144,1318 1144,1318 "/>
<polyline name="G29" class="G" style="fill:none;stroke:blue;stroke-width:1;opacity:0.8" points="793,0 886,406 888,406 "/>
<polyline name="G189" class="G" style="fill:none;stroke:blue;stroke-width:1;opacity:0.8" points="803,0 824,60 826,60 861,210 863,210 909,406 910,406 "/>
<polyline name="G59" class="G" style="fill:none;stroke:blue;stroke-width:1;opacity:0.8" points="820,0 894,314 909,314 933,406 935,406 985,627 988,627 1006,692 1008,692 1045,848 1047,848 1089,1023 1099,1023 1175,1477 1181,1477 "/>
<polyline name="G139" class="G" style="fill:none;stroke:blue;stroke-width:1;opacity:0.8" points="825,0 876,210 886,210 913,314 915,314 939,406 941,406 991,627 993,627 1011,692 1013,692 1050,848 1055,848 1084,964 1090,964 1108,1023 1111,1023 1157,1210 1159,1210 1188,1318 1188,1318 "/>
<polyline name="G3" class="G" style="fill:none;stroke:blue;stroke-width:4;opacity:0.8" points="840,0 922,406 924,406 1043,1023 1045,1023 1108,1318 1108,1318 "/>
<polyline name="G43" class="G" style="fill:none;stroke:blue;stroke-width:1;opacity:0.8" points="845,0 918,314 920,314 944,406 946,406 978,535 980,535 1016,692 1018,692 1094,1023 1098,1023 1117,1088 1123,1088 1159,1237 1161,1237 1184,1318 1186,1318 1213,1402 1215,1402 1245,1477 1245,1477 "/>
<polyline name="G141" class="G" style="fill:none;stroke:blue;stroke-width:1;opacity:0.8" points="850,0 923,314 925,314 949,406 951,406 968,465 970,465 1021,692 1023,692 1060,848 1067,848 1083,902 1085,902 1116,1023 1121,1023 1166,1210 1168,1210 1185,1268 1187,1268 1204,1318 1204,1318 "/>
<polyline name="G191" class="G" style="fill:none;stroke:blue;stroke-width:1;opacity:0.8" points="860,0 933,314 935,314 960,406 969,406 "/>
<polyline name="G143" class="G" style="fill:none;stroke:blue;stroke-width:1;opacity:0.8" points="870,0 922,210 924,210 970,406 972,406 1015,591 1025,591 1085,848 1087,848 1129,1023 1131,1023 1150,1088 1152,1088 1198,1237 1200,1237 1211,1268 1213,1268 1230,1318 1230,1318 "/>
<polyline name="G145" class="G" style="fill:none;stroke:blue;stroke-width:1;opacity:0.8" points="875,0 926,210 929,210 975,406 994,406 1045,627 1047,627 1065,692 1069,692 1129,964 1131,964 1149,1023 1151,1023 1176,1120 1178,1120 1209,1210 1211,1210 1228,1268 1230,1268 1247,1318 1247,1318 "/>
<polyline name="G193" class="G" style="fill:none;stroke:blue;stroke-width:1;opacity:0.8" points="880,0 901,60 905,60 923,122 932,122 954,210 956,210 1002,406 1007,406 "/>
<polyline name="G17" class="G" style="fill:none;stroke:blue;stroke-width:4;opacity:0.8" points="900,0 982,406 984,406 1103,1023 1105,1023 1168,1318 1168,1318 "/>
<polyline name="G35" class="G" style="fill:none;stroke:blue;stroke-width:1;opacity:0.8" points="910,0 961,210 964,210 1011,406 1013,406 1056,591 1059,591 1084,692 1086,692 1162,1023 1168,1023 1252,1477 1252,1477 "/>
<polyline name="G161" class="G" style="fill:none;stroke:blue;stroke-width:1;opacity:0.8" points="915,0 966,210 969,210 1016,406 1018,406 1050,535 1053,535 1089,692 1091,692 1128,848 1130,848 "/>
<polyline name="G45" class="G" style="fill:none;stroke:blue;stroke-width:1;opacity:0.8" points="925,0 959,122 965,122 987,210 989,210 1016,314 1018,314 1042,406 1044,406 1094,627 1096,627 1114,692 1117,692 1191,1023 1194,1023 1276,1477 1288,1477 "/>
<polyline name="G351" class="G" style="fill:none;stroke:blue;stroke-width:1;opacity:0.8" points="931,0 982,210 984,210 1011,314 1013,314 1037,406 1039,406 1103,692 1106,692 1143,848 1149,848 "/>
<polyline name="G475" class="G" style="fill:none;stroke:blue;stroke-width:1;opacity:0.8" points="936,0 970,122 972,122 994,210 996,210 1023,314 1025,314 1049,406 1051,406 "/>
<polyline name="G147" class="G" style="fill:none;stroke:blue;stroke-width:1;opacity:0.8" points="946,0 967,60 969,60 1004,210 1006,210 1033,314 1039,314 1063,406 1065,406 1097,535 1099,535 1122,627 1124,627 1198,964 1200,964 1218,1023 1220,1023 1239,1088 1241,1088 1284,1237 1286,1237 1310,1318 1310,1318 "/>
<polyline name="G21" class="G" style="fill:none;stroke:blue;stroke-width:1;opacity:0.8" points="960,0 994,122 996,122 1059,406 1061,406 1124,692 1127,692 1201,1023 1204,1023 1273,1318 1273,1318 "/>
<polyline name="G37" class="G" style="fill:none;stroke:blue;stroke-width:1;opacity:0.8" points="965,0 999,122 1001,122 1023,210 1029,210 1056,314 1058,314 1082,406 1084,406 1147,692 1149,692 1168,760 1170,760 1193,848 1195,848 1237,1023 1240,1023 1323,1477 1323,1477 "/>
<polyline name="G195" class="G" style="fill:none;stroke:blue;stroke-width:1;opacity:0.8" points="970,0 991,60 993,60 1051,314 1053,314 1077,406 1080,406 "/>
<polyline name="G149" class="G" style="fill:none;stroke:blue;stroke-width:1;opacity:0.8" points="985,0 1038,210 1040,210 1067,314 1069,314 1093,406 1098,406 1141,591 1144,591 1169,692 1171,692 1190,760 1192,760 1252,1023 1254,1023 1273,1088 1275,1088 1305,1210 1307,1210 1323,1268 1325,1268 1342,1318 1342,1318 "/>
<polyline name="G151" class="G" style="fill:none;stroke:blue;stroke-width:1;opacity:0.8" points="995,0 1029,122 1031,122 1075,314 1078,314 1102,406 1104,406 1136,535 1138,535 1161,627 1166,627 1184,692 1186,692 1205,760 1207,760 1267,1023 1273,1023 1329,1237 1331,1237 1355,1318 1355,1318 "/>
<polyline name="G197" class="G" style="fill:none;stroke:blue;stroke-width:1;opacity:0.8" points="1002,0 1036,122 1038,122 1082,314 1084,314 1108,406 1111,406 "/>
<polyline name="G39" class="G" style="fill:none;stroke:blue;stroke-width:1;opacity:0.8" points="1007,0 1028,60 1030,60 1065,210 1067,210 1113,406 1115,406 1132,465 1134,465 1172,627 1175,627 1193,692 1195,692 1271,1023 1276,1023 1359,1477 1359,1477 "/>
<polyline name="G23" class="G" style="fill:none;stroke:blue;stroke-width:1;opacity:0.8" points="1020,0 1054,122 1056,122 1119,406 1121,406 1138,465 1140,465 1171,591 1173,591 1198,692 1200,692 1275,1023 1278,1023 1297,1088 1299,1088 1334,1237 1336,1237 1359,1318 1359,1318 "/>
<polyline name="G153" class="G" style="fill:none;stroke:blue;stroke-width:1;opacity:0.8" points="1035,0 1086,210 1089,210 1136,406 1138,406 1155,465 1157,465 1208,692 1210,692 1247,848 1249,848 1291,1023 1293,1023 1337,1210 1340,1210 1369,1318 1369,1318 "/>
<polyline name="G155" class="G" style="fill:none;stroke:blue;stroke-width:1;opacity:0.8" points="1040,0 1074,122 1076,122 1120,314 1123,314 1147,406 1150,406 1193,591 1195,591 1220,692 1222,692 1297,1023 1300,1023 1344,1210 1346,1210 1356,1237 1358,1237 1369,1268 1371,1268 1388,1318 1388,1318 "/>
<polyline name="G199" class="G" style="fill:none;stroke:blue;stroke-width:1;opacity:0.8" points="1045,0 1066,60 1068,60 1125,314 1128,314 1152,406 1155,406 "/>
<polyline name="G267" class="G" style="fill:none;stroke:blue;stroke-width:1;opacity:0.8" points="1058,0 1133,314 1135,314 1159,406 1161,406 1193,535 1196,535 1232,692 1234,692 1253,760 1255,760 1278,848 1280,848 "/>
<polyline name="G157" class="G" style="fill:none;stroke:blue;stroke-width:1;opacity:0.8" points="1063,0 1138,314 1140,314 1164,406 1170,406 1202,535 1204,535 1240,692 1245,692 1321,1023 1325,1023 1381,1237 1387,1237 1410,1318 1410,1318 "/>
<polyline name="G159" class="G" style="fill:none;stroke:blue;stroke-width:1;opacity:0.8" points="1068,0 1119,210 1123,210 1169,406 1185,406 1235,627 1237,627 1269,760 1271,760 1331,1023 1333,1023 1352,1088 1361,1088 1390,1210 1395,1210 1424,1318 1424,1318 "/>
<polyline name="G201" class="G" style="fill:none;stroke:blue;stroke-width:1;opacity:0.8" points="1085,0 1137,210 1139,210 1166,314 1168,314 1192,406 1194,406 1226,535 1228,535 1244,591 1246,591 1286,760 1292,760 1315,848 1321,848 1363,1023 1363,1023 "/>
<polyline name="G331" class="G" style="fill:none;stroke:blue;stroke-width:1;opacity:0.8" points="1100,0 1134,122 1136,122 1180,314 1182,314 1206,406 1206,406 "/>
<polyline name="G203" class="G" style="fill:none;stroke:blue;stroke-width:1;opacity:0.8" points="1108,0 1142,122 1144,122 1188,314 1190,314 1214,406 1216,406 1233,465 1245,465 1283,627 1285,627 1303,692 1305,692 1383,1023 1383,1023 "/>
<polyline name="G1567" class="G" style="fill:none;stroke:blue;stroke-width:1;opacity:0.8" points="1113,0 1147,122 1154,122 1198,314 1210,314 1234,406 1246,406 1278,535 1281,535 1317,692 1338,692 "/>
<polyline name="G269" class="G" style="fill:none;stroke:blue;stroke-width:1;opacity:0.8" points="1118,0 1139,60 1141,60 1159,122 1176,122 1239,406 1242,406 1285,591 1288,591 1327,760 1329,760 "/>
<polyline name="G7" class="G" style="fill:none;stroke:blue;stroke-width:4;opacity:0.8" points="1140,0 1222,406 1224,406 1341,1023 1343,1023 1404,1318 1404,1318 "/>
<polyline name="G9" class="G" style="fill:none;stroke:blue;stroke-width:4;opacity:0.8" points="1145,0 1227,406 1229,406 1286,692 1288,692 1354,1023 1356,1023 1419,1318 1419,1318 "/>
<polyline name="G271" class="G" style="fill:none;stroke:blue;stroke-width:1;opacity:0.8" points="1150,0 1171,60 1173,60 1249,406 1251,406 1268,465 1270,465 1321,692 1323,692 1360,848 1362,848 "/>
<polyline name="G207" class="G" style="fill:none;stroke:blue;stroke-width:1;opacity:0.8" points="1160,0 1195,122 1197,122 1219,210 1221,210 1248,314 1250,314 1274,406 1280,406 1323,591 1325,591 1337,627 1339,627 1357,692 1357,692 "/>
<polyline name="G333" class="G" style="fill:none;stroke:blue;stroke-width:1;opacity:0.8" points="1210,0 1231,60 1233,60 1268,210 1270,210 1316,406 1316,406 "/>
<polyline name="G337" class="G" style="fill:none;stroke:blue;stroke-width:1;opacity:0.8" points="1258,0 1279,60 1284,60 1302,122 1304,122 1348,314 1350,314 1374,406 1374,406 "/>
</svg>
